<svg id="Zenus_Bank_Turqoise_Stacked_RGB" xmlns="http://www.w3.org/2000/svg" width="120.036" height="42.9" viewBox="0 0 120.036 42.9">
  <g id="Artwork_1" transform="translate(0 0)">
    <g id="Group_96" data-name="Group 96">
      <path id="Path_92351" data-name="Path 92351" d="M183.4.025v12.61a1.516,1.516,0,0,1-1.516,1.516h-5.563a1.758,1.758,0,0,1-1.756-1.756V.02H170.41v13.2a3.941,3.941,0,0,0,3.938,3.938h9.27a3.941,3.941,0,0,0,3.938-3.938V.02H183.4Z" transform="translate(-93.278 -0.011)" fill="#fff"/>
      <path id="Path_92352" data-name="Path 92352" d="M240.251,5.391V4.739A1.751,1.751,0,0,0,238.5,2.992h-5.332c-.951,0-1.964.231-1.688,1.833.435,1.29,1.743,1.448,4.789,2.2a28.076,28.076,0,0,1,5.463,1.562,4.47,4.47,0,0,1,2.422,2.784,6.5,6.5,0,0,1,.226,1.779c0,.1-.009.195-.014.285a3.91,3.91,0,0,1-3.906,3.7h-9.021a4.127,4.127,0,0,1-4.123-4.123V11.746h4.132V12.4a1.751,1.751,0,0,0,1.747,1.747h5.332c.951,0,2.159-.349,1.688-1.833-.435-1.29-1.711-1.186-4.757-1.942a23.358,23.358,0,0,1-5.495-1.824h-.009a4.485,4.485,0,0,1-2.412-2.784,6.492,6.492,0,0,1-.226-1.779c0-.1.009-.195.014-.285A3.91,3.91,0,0,1,231.24,0h9.021a4.121,4.121,0,0,1,4.123,4.123V5.391h-4.132Z" transform="translate(-124.429 0)" fill="#fff"/>
      <path id="Path_92353" data-name="Path 92353" d="M56.77,17.177V.05h17.1v3H60.943V7.025h9.931v3H60.943v4.155H73.888v3H56.77Z" transform="translate(-31.074 -0.027)" fill="#fff"/>
      <path id="Path_92354" data-name="Path 92354" d="M113.52,17.2V.05h3.906l9.084,10.474V.05h4.151V17.2h-3.906l-9.084-10.5V17.2H113.52Z" transform="translate(-62.138 -0.027)" fill="#fff"/>
      <path id="Path_92355" data-name="Path 92355" d="M170.5,74.035V56.88h3.906l9.084,10.474V56.88h4.151V74.035h-3.906l-9.084-10.5v10.5Z" transform="translate(-93.327 -31.135)" fill="#fff"/>
      <path id="Path_92356" data-name="Path 92356" d="M56.77,74.035V56.88H67.108a7.44,7.44,0,0,1,4.458,1.127,3.851,3.851,0,0,1,1.525,3.3,4.207,4.207,0,0,1-.552,2.145,3.572,3.572,0,0,1-1.571,1.444,3.969,3.969,0,0,1,2.213,1.489A4.325,4.325,0,0,1,74,69.019a4.49,4.49,0,0,1-1.6,3.734,7.445,7.445,0,0,1-4.716,1.276H56.77ZM66.746,60H60.857v3.861h5.866c1.5,0,2.259-.661,2.259-1.987Q68.982,60,66.746,60Zm.543,6.862H60.857v4.065H67.38q2.281,0,2.281-2.032T67.289,66.865Z" transform="translate(-31.074 -31.135)" fill="#fff"/>
      <path id="Path_92357" data-name="Path 92357" d="M227.29,74.035V56.88H231.8v7.043l6.509-7.043h5.441l-7.269,8.193,7.966,8.962H238.56l-6.753-7.355v7.355Z" transform="translate(-124.413 -31.135)" fill="#fff"/>
      <path id="Path_92358" data-name="Path 92358" d="M0,31.727v2.539H17.132v-3H.448Z" transform="translate(0 -17.116)" fill="#fff"/>
      <path id="Path_92359" data-name="Path 92359" d="M0,.05v3H10.768L3.906,10.062h6.359l6.866-6.925V.05Z" transform="translate(0 -0.027)" fill="#fff"/>
      <path id="Path_92360" data-name="Path 92360" d="M113.71,60.8V74h4.155V66.845H126.7V74h4.155V60.8a3.941,3.941,0,0,0-3.938-3.938h-9.27A3.941,3.941,0,0,0,113.71,60.8Zm4.155,3.042V61.386a1.516,1.516,0,0,1,1.516-1.516h5.563a1.758,1.758,0,0,1,1.756,1.756v2.213Z" transform="translate(-62.242 -31.124)" fill="#fff"/>
    </g>
  </g>
</svg>
